<svg width="28" height="24" viewBox="0 0 28 24" fill="none" xmlns="http://www.w3.org/2000/svg">
<path d="M25.4675 2.34311C24.1067 0.986285 22.2642 0.223097 20.3425 0.220242C18.4209 0.217388 16.5761 0.975099 15.2113 2.32788L14.0019 3.45054L12.7925 2.32788C11.4281 0.966884 9.57893 0.203643 7.65177 0.20606C5.72462 0.208478 3.87735 0.976356 2.51636 2.34077C1.15536 3.70519 0.39212 5.55437 0.394537 7.48153C0.396954 9.40868 1.16483 11.2559 2.52925 12.6169L12.9999 23.24C13.1308 23.3729 13.2868 23.4784 13.4588 23.5504C13.6308 23.6224 13.8154 23.6595 14.0019 23.6595C14.1884 23.6595 14.373 23.6224 14.545 23.5504C14.717 23.4784 14.873 23.3729 15.0039 23.24L25.4675 12.624C26.1425 11.9493 26.678 11.1482 27.0433 10.2665C27.4086 9.38475 27.5967 8.4397 27.5967 7.4853C27.5967 6.53091 27.4086 5.58586 27.0433 4.70415C26.678 3.82244 26.1425 3.02135 25.4675 2.34663V2.34311ZM23.4753 10.6388L14.0019 20.2458L4.52495 10.6306C3.69269 9.7949 3.22596 8.66314 3.22718 7.4837C3.2284 6.30426 3.69748 5.17347 4.53147 4.33948C5.36546 3.50548 6.49625 3.03641 7.67569 3.03519C8.85513 3.03397 9.98689 3.5007 10.8226 4.33296C10.8343 4.34468 10.846 4.3564 10.8589 4.36694L13.0433 6.40132C13.3036 6.64383 13.6461 6.77867 14.0019 6.77867C14.3577 6.77867 14.7002 6.64383 14.9605 6.40132L17.1449 4.36694C17.1578 4.3564 17.1695 4.34468 17.1812 4.33296C17.5952 3.91991 18.0866 3.59246 18.6272 3.3693C19.1678 3.14614 19.7471 3.03165 20.3319 3.03236C20.9167 3.03307 21.4957 3.14896 22.0358 3.37342C22.5758 3.59789 23.0664 3.92653 23.4794 4.34058C23.8925 4.75462 24.2199 5.24597 24.4431 5.78657C24.6663 6.32717 24.7807 6.90643 24.78 7.49127C24.7793 8.07612 24.6634 8.6551 24.439 9.19516C24.2145 9.73521 23.8859 10.2258 23.4718 10.6388H23.4753Z" fill="white"/>
</svg>
