<svg width="28" height="24" viewBox="0 0 28 24" fill="none" xmlns="http://www.w3.org/2000/svg">
<path d="M25.4656 2.34311C24.1047 0.986285 22.2623 0.223097 20.3406 0.220242C18.4189 0.217388 16.5742 0.975099 15.2093 2.32788L14 3.45054L12.7906 2.32788C11.4262 0.966884 9.57698 0.203643 7.64982 0.20606C5.72266 0.208478 3.8754 0.976356 2.5144 2.34077C1.15341 3.70519 0.390166 5.55437 0.392584 7.48153C0.395001 9.40868 1.16288 11.2559 2.52729 12.6169L12.998 23.24C13.1288 23.3729 13.2848 23.4784 13.4568 23.5504C13.6288 23.6224 13.8135 23.6595 14 23.6595C14.1864 23.6595 14.3711 23.6224 14.5431 23.5504C14.7151 23.4784 14.8711 23.3729 15.0019 23.24L25.4656 12.624C26.1406 11.9493 26.676 11.1482 27.0414 10.2665C27.4067 9.38475 27.5947 8.4397 27.5947 7.4853C27.5947 6.53091 27.4067 5.58586 27.0414 4.70415C26.676 3.82244 26.1406 3.02135 25.4656 2.34663V2.34311ZM23.4734 10.6388L14 20.2458L4.523 10.6306C3.69073 9.7949 3.22401 8.66314 3.22523 7.4837C3.22645 6.30426 3.69552 5.17347 4.52951 4.33948C5.36351 3.50548 6.49429 3.03641 7.67374 3.03519C8.85318 3.03397 9.98493 3.5007 10.8207 4.33296C10.8324 4.34468 10.8441 4.3564 10.857 4.36694L13.0414 6.40132C13.3017 6.64383 13.6442 6.77867 14 6.77867C14.3557 6.77867 14.6982 6.64383 14.9585 6.40132L17.1429 4.36694C17.1558 4.3564 17.1675 4.34468 17.1792 4.33296C17.5933 3.91991 18.0846 3.59246 18.6252 3.3693C19.1658 3.14614 19.7451 3.03165 20.3299 3.03236C20.9148 3.03307 21.4938 3.14896 22.0338 3.37342C22.5739 3.59789 23.0644 3.92653 23.4775 4.34058C23.8905 4.75462 24.218 5.24597 24.4411 5.78657C24.6643 6.32717 24.7788 6.90643 24.7781 7.49127C24.7774 8.07612 24.6615 8.6551 24.437 9.19516C24.2126 9.73521 23.8839 10.2258 23.4699 10.6388H23.4734Z" fill="white"/>
</svg>
