<svg width="17" height="14" viewBox="0 0 17 14" fill="none" xmlns="http://www.w3.org/2000/svg">
<g opacity="0.2">
<path fill-rule="evenodd" clip-rule="evenodd" d="M9.24884 0.749492C9.43044 0.598089 9.64009 0.483947 9.86581 0.413586C10.0915 0.343224 10.3289 0.318021 10.5644 0.339417C10.7998 0.360812 11.0288 0.428387 11.2381 0.538282C11.4475 0.648176 11.6331 0.798237 11.7844 0.979892L15.784 5.77989C15.9421 5.96054 16.0624 6.17096 16.1379 6.39879C16.2134 6.62662 16.2426 6.86725 16.2237 7.10652C16.2049 7.34579 16.1383 7.57888 16.0281 7.79206C15.9178 8.00525 15.766 8.19422 15.5816 8.34788C15.3972 8.50153 15.184 8.61676 14.9544 8.68678C14.7248 8.7568 14.4836 8.7802 14.2448 8.7556C14.0061 8.731 13.7747 8.65891 13.5642 8.54355C13.3537 8.4282 13.1684 8.27191 13.0192 8.08389L9.01844 3.28389C8.71304 2.9172 8.56576 2.44424 8.60896 1.96899C8.65216 1.49374 8.88232 1.0551 9.24884 0.749492Z" fill="#1A1A1A"/>
<path fill-rule="evenodd" clip-rule="evenodd" d="M9.24884 13.1133C8.88232 12.8077 8.65216 12.369 8.60896 11.8938C8.56576 11.4185 8.71304 10.9456 9.01844 10.5789L13.0192 5.77888C13.3286 5.42521 13.7641 5.20656 14.2325 5.16963C14.701 5.13271 15.1653 5.28044 15.5263 5.58127C15.8873 5.8821 16.1163 6.31217 16.1645 6.7796C16.2127 7.24704 16.0761 7.71477 15.784 8.08288L11.7844 12.8829C11.6331 13.0645 11.4475 13.2146 11.2381 13.3245C11.0288 13.4344 10.7998 13.502 10.5644 13.5234C10.3289 13.5447 10.0915 13.5195 9.86581 13.4492C9.64009 13.3788 9.43044 13.2647 9.24884 13.1133Z" fill="#1A1A1A"/>
<path fill-rule="evenodd" clip-rule="evenodd" d="M13.8016 6.93281C13.8016 7.4102 13.6119 7.86804 13.2744 8.2056C12.9368 8.54317 12.479 8.73281 12.0016 8.73281H2.40156C1.92417 8.73281 1.46634 8.54317 1.12877 8.2056C0.791205 7.86804 0.601563 7.4102 0.601562 6.93281C0.601563 6.45542 0.791205 5.99759 1.12877 5.66002C1.46634 5.32245 1.92417 5.13281 2.40156 5.13281H12.0016C12.479 5.13281 12.9368 5.32245 13.2744 5.66002C13.6119 5.99759 13.8016 6.45542 13.8016 6.93281Z" fill="#1A1A1A"/>
</g>
<path fill-rule="evenodd" clip-rule="evenodd" d="M8.21576 0.47099C8.33799 0.369191 8.49564 0.320095 8.65406 0.334497C8.81247 0.348899 8.95869 0.425617 9.06056 0.547789L13.0602 5.34779C13.1575 5.47049 13.203 5.6264 13.187 5.78222C13.1709 5.93803 13.0946 6.08138 12.9743 6.18166C12.8539 6.28194 12.6991 6.33118 12.543 6.31887C12.3868 6.30656 12.2417 6.23368 12.1386 6.11579L8.13896 1.31579C8.03716 1.19356 7.98806 1.03591 8.00247 0.87749C8.01687 0.719073 8.09359 0.572859 8.21576 0.47099Z" fill="#1A1A1A"/>
<path fill-rule="evenodd" clip-rule="evenodd" d="M8.21576 10.9943C8.09359 10.8924 8.01687 10.7462 8.00247 10.5878C7.98806 10.4294 8.03716 10.2717 8.13896 10.1495L12.1386 5.34947C12.2417 5.23158 12.3868 5.1587 12.543 5.14639C12.6991 5.13408 12.8539 5.18332 12.9743 5.2836C13.0946 5.38388 13.1709 5.52723 13.187 5.68304C13.203 5.83886 13.1575 5.99477 13.0602 6.11747L9.06056 10.9175C8.95869 11.0396 8.81247 11.1164 8.65406 11.1308C8.49564 11.1452 8.33799 11.0961 8.21576 10.9943Z" fill="#1A1A1A"/>
<path fill-rule="evenodd" clip-rule="evenodd" d="M13.2 5.73281C13.2 5.89194 13.1368 6.04456 13.0243 6.15708C12.9117 6.2696 12.7591 6.33281 12.6 6.33281H0.6C0.44087 6.33281 0.288258 6.2696 0.175736 6.15708C0.0632142 6.04456 0 5.89194 0 5.73281C0 5.57368 0.0632142 5.42107 0.175736 5.30855C0.288258 5.19603 0.44087 5.13281 0.6 5.13281H12.6C12.7591 5.13281 12.9117 5.19603 13.0243 5.30855C13.1368 5.42107 13.2 5.57368 13.2 5.73281Z" fill="#1A1A1A"/>
</svg>
