<svg width="33" height="33" viewBox="0 0 33 33" fill="none" xmlns="http://www.w3.org/2000/svg">
<path d="M19.1851 19.0781V18.975L18.7584 10.725C18.7465 10.5016 18.6813 10.3082 18.5628 10.1449C18.4442 9.98164 18.3079 9.9 18.1538 9.9H14.8467C14.6926 9.9 14.5563 9.98164 14.4378 10.1449C14.3192 10.3082 14.254 10.5016 14.2422 10.725L13.8155 18.975V19.0781C13.8036 19.2844 13.851 19.4562 13.9577 19.5938C14.0644 19.7312 14.1888 19.8 14.3311 19.8H18.6694C18.8117 19.8 18.9362 19.7312 19.0428 19.5938C19.1495 19.4562 19.1969 19.2844 19.1851 19.0781ZM32.6802 31.118C32.6802 32.3727 32.4076 33 31.8623 33H19.3451C19.4992 33 19.6296 32.9184 19.7363 32.7551C19.8429 32.5918 19.8904 32.3984 19.8785 32.175L19.5229 25.575C19.511 25.3516 19.4459 25.1582 19.3273 24.9949C19.2088 24.8316 19.0725 24.75 18.9184 24.75H14.0822C13.9281 24.75 13.7918 24.8316 13.6732 24.9949C13.5547 25.1582 13.4895 25.3516 13.4776 25.575L13.122 32.175C13.1102 32.3984 13.1576 32.5918 13.2643 32.7551C13.371 32.9184 13.5013 33 13.6554 33H1.1382C0.592942 33 0.320312 32.3727 0.320312 31.118C0.320312 30.1898 0.474407 29.193 0.782597 28.1273L8.19693 1.21172C8.29176 0.885156 8.44585 0.601562 8.65921 0.360938C8.87257 0.120313 9.09779 0 9.33486 0H15.3623C15.2082 0 15.0719 0.0816406 14.9534 0.244922C14.8349 0.408203 14.7697 0.601562 14.7578 0.825L14.4911 5.775C14.4793 6.01562 14.5267 6.21328 14.6334 6.36797C14.74 6.52266 14.8704 6.6 15.0245 6.6H17.976C18.1301 6.6 18.2605 6.52266 18.3672 6.36797C18.4739 6.21328 18.5213 6.01562 18.5094 5.775L18.2427 0.825C18.2309 0.601562 18.1657 0.408203 18.0471 0.244922C17.9286 0.0816406 17.7923 0 17.6382 0H23.6657C23.9027 0 24.128 0.120313 24.3413 0.360938C24.5547 0.601562 24.7088 0.885156 24.8036 1.21172L32.2179 28.1273C32.5261 29.193 32.6802 30.1898 32.6802 31.118Z" fill="white"/>
</svg>
