<svg width="30" height="30" viewBox="0 0 30 30" fill="none" xmlns="http://www.w3.org/2000/svg">
<path d="M2.5 6.25C2.16848 6.25 1.85054 6.3817 1.61612 6.61612C1.3817 6.85054 1.25 7.16848 1.25 7.5V22.5C1.25 22.8315 1.3817 23.1495 1.61612 23.3839C1.85054 23.6183 2.16848 23.75 2.5 23.75H6.25V21.25H8.75V23.75H11.25V21.25H13.75V23.75H16.25V21.25H18.75V23.75H21.25V21.25H23.75V23.75H27.5C27.8315 23.75 28.1495 23.6183 28.3839 23.3839C28.6183 23.1495 28.75 22.8315 28.75 22.5V7.5C28.75 7.16848 28.6183 6.85054 28.3839 6.61612C28.1495 6.3817 27.8315 6.25 27.5 6.25H2.5ZM6.25 11.25H13.75V15H6.25V11.25ZM16.25 11.25H23.75V15H16.25V11.25Z" fill="#AAA7A7"/>
</svg>
