<svg width="18" height="18" viewBox="0 0 18 18" fill="none" xmlns="http://www.w3.org/2000/svg">
<path d="M5.49935 0.666504H12.4993C15.166 0.666504 17.3327 2.83317 17.3327 5.49984V12.4998C17.3327 13.7817 16.8235 15.0111 15.917 15.9175C15.0106 16.8239 13.7812 17.3332 12.4993 17.3332H5.49935C2.83268 17.3332 0.666016 15.1665 0.666016 12.4998V5.49984C0.666016 4.21796 1.17524 2.98858 2.08167 2.08215C2.98809 1.17573 4.21747 0.666504 5.49935 0.666504ZM5.33268 2.33317C4.53703 2.33317 3.77397 2.64924 3.21136 3.21185C2.64875 3.77446 2.33268 4.53752 2.33268 5.33317V12.6665C2.33268 14.3248 3.67435 15.6665 5.33268 15.6665H12.666C13.4617 15.6665 14.2247 15.3504 14.7873 14.7878C15.3499 14.2252 15.666 13.4622 15.666 12.6665V5.33317C15.666 3.67484 14.3243 2.33317 12.666 2.33317H5.33268ZM13.3743 3.58317C13.6506 3.58317 13.9156 3.69292 14.1109 3.88827C14.3063 4.08362 14.416 4.34857 14.416 4.62484C14.416 4.9011 14.3063 5.16606 14.1109 5.36141C13.9156 5.55676 13.6506 5.6665 13.3743 5.6665C13.0981 5.6665 12.8331 5.55676 12.6378 5.36141C12.4424 5.16606 12.3327 4.9011 12.3327 4.62484C12.3327 4.34857 12.4424 4.08362 12.6378 3.88827C12.8331 3.69292 13.0981 3.58317 13.3743 3.58317ZM8.99935 4.83317C10.1044 4.83317 11.1642 5.27216 11.9456 6.05356C12.727 6.83496 13.166 7.89477 13.166 8.99984C13.166 10.1049 12.727 11.1647 11.9456 11.9461C11.1642 12.7275 10.1044 13.1665 8.99935 13.1665C7.89428 13.1665 6.83447 12.7275 6.05307 11.9461C5.27167 11.1647 4.83268 10.1049 4.83268 8.99984C4.83268 7.89477 5.27167 6.83496 6.05307 6.05356C6.83447 5.27216 7.89428 4.83317 8.99935 4.83317ZM8.99935 6.49984C8.33631 6.49984 7.70042 6.76323 7.23158 7.23207C6.76274 7.70091 6.49935 8.3368 6.49935 8.99984C6.49935 9.66288 6.76274 10.2988 7.23158 10.7676C7.70042 11.2364 8.33631 11.4998 8.99935 11.4998C9.66239 11.4998 10.2983 11.2364 10.7671 10.7676C11.236 10.2988 11.4993 9.66288 11.4993 8.99984C11.4993 8.3368 11.236 7.70091 10.7671 7.23207C10.2983 6.76323 9.66239 6.49984 8.99935 6.49984Z" fill="white"/>
</svg>
