<svg width="18" height="18" viewBox="0 0 18 18" fill="none" xmlns="http://www.w3.org/2000/svg">
<path d="M8.99935 0.666504C4.39935 0.666504 0.666016 4.39984 0.666016 8.99984C0.666016 13.5998 4.39935 17.3332 8.99935 17.3332C13.5993 17.3332 17.3327 13.5998 17.3327 8.99984C17.3327 4.39984 13.5993 0.666504 8.99935 0.666504ZM12.866 6.33317C12.741 7.64984 12.1993 10.8498 11.9243 12.3248C11.8077 12.9498 11.5743 13.1582 11.3577 13.1832C10.8743 13.2248 10.5077 12.8665 10.041 12.5582C9.30768 12.0748 8.89102 11.7748 8.18268 11.3082C7.35768 10.7665 7.89102 10.4665 8.36602 9.98317C8.49102 9.85817 10.6243 7.9165 10.666 7.7415C10.6718 7.715 10.671 7.68748 10.6638 7.66134C10.6565 7.6352 10.643 7.61123 10.6243 7.5915C10.5743 7.54984 10.5077 7.5665 10.4493 7.57484C10.3743 7.5915 9.20768 8.3665 6.93268 9.89984C6.59935 10.1248 6.29935 10.2415 6.03268 10.2332C5.73268 10.2248 5.16602 10.0665 4.74102 9.92484C4.21602 9.75817 3.80768 9.6665 3.84102 9.37484C3.85768 9.22484 4.06602 9.07484 4.45768 8.9165C6.89102 7.85817 8.50768 7.15817 9.31602 6.82484C11.6327 5.85817 12.1077 5.6915 12.4243 5.6915C12.491 5.6915 12.6493 5.70817 12.7493 5.7915C12.8327 5.85817 12.8577 5.94984 12.866 6.0165C12.8577 6.0665 12.8743 6.2165 12.866 6.33317Z" fill="white"/>
</svg>
